<svg width="35" height="35" viewBox="0 0 35 35" fill="none" xmlns="http://www.w3.org/2000/svg">
<rect width="35" height="35" rx="4" fill="#10618E"/>
<path d="M11.72 23.26C11.72 23.2067 11.7333 23.14 11.76 23.06L13.12 19.46H12.3C11.94 19.46 11.76 19.2067 11.76 18.7C11.76 18.5 11.8067 18.3333 11.9 18.2C11.9933 18.0533 12.1267 17.98 12.3 17.98H13.68L16.46 10.7C16.5667 10.4867 16.7133 10.32 16.9 10.2C17.0867 10.0667 17.2533 10 17.4 10C17.5467 10 17.7133 10.0667 17.9 10.2C18.0867 10.3333 18.2267 10.5 18.32 10.7L21.1 17.98H22.4C22.5733 17.98 22.7067 18.0533 22.8 18.2C22.9067 18.3467 22.96 18.52 22.96 18.72C22.96 19.2133 22.7733 19.46 22.4 19.46H21.68L23.06 23.06C23.0867 23.14 23.1 23.2067 23.1 23.26C23.1 23.46 23 23.6333 22.8 23.78C22.6 23.9267 22.4 24 22.2 24C21.9867 24 21.8267 23.9 21.72 23.7L20.1 19.46H14.72L13.1 23.7C12.9933 23.9 12.8333 24 12.62 24C12.42 24 12.22 23.9267 12.02 23.78C11.82 23.6333 11.72 23.46 11.72 23.26ZM15.28 17.98H19.52L17.4 12.4L15.28 17.98Z" fill="white"/>
</svg>
