<svg width="35" height="35" viewBox="0 0 35 35" fill="none" xmlns="http://www.w3.org/2000/svg">
<rect width="35" height="35" rx="4" fill="white"/>
<path d="M4.36701 21.1065C3.8083 21.1065 3.32771 20.9882 2.92525 20.7514C2.52515 20.5123 2.21739 20.1809 2.00195 19.7571C1.78888 19.3333 1.68235 18.8456 1.68235 18.294C1.68235 17.7353 1.79007 17.2453 2.0055 16.8239C2.22331 16.4001 2.53226 16.0698 2.93235 15.8331C3.33245 15.594 3.8083 15.4744 4.35991 15.4744C4.83576 15.4744 5.25243 15.5608 5.60991 15.7337C5.96739 15.9065 6.2503 16.1491 6.45863 16.4616C6.66696 16.7741 6.78178 17.1411 6.80309 17.5625H5.37553C5.33529 17.2902 5.22875 17.0713 5.05593 16.9055C4.88548 16.7375 4.66175 16.6534 4.38477 16.6534C4.15039 16.6534 3.94561 16.7173 3.77042 16.8452C3.5976 16.9706 3.46265 17.1541 3.36559 17.3956C3.26853 17.6371 3.21999 17.9295 3.21999 18.2727C3.21999 18.6207 3.26734 18.9167 3.36204 19.1605C3.4591 19.4044 3.59523 19.5902 3.77042 19.718C3.94561 19.8459 4.15039 19.9098 4.38477 19.9098C4.55759 19.9098 4.71265 19.8743 4.84996 19.8033C4.98964 19.7322 5.10446 19.6293 5.19442 19.4943C5.28675 19.357 5.34712 19.1925 5.37553 19.0007H6.80309C6.77942 19.4174 6.66578 19.7843 6.46218 20.1016C6.26095 20.4164 5.98278 20.6626 5.62766 20.8402C5.27255 21.0178 4.85233 21.1065 4.36701 21.1065ZM11.2695 18.6776V15.5455H12.7823V21H11.3299V20.0092H11.2731C11.15 20.3288 10.9452 20.5857 10.6587 20.7798C10.3746 20.974 10.0278 21.071 9.61825 21.071C9.25367 21.071 8.93288 20.9882 8.65589 20.8224C8.37891 20.6567 8.16229 20.4212 8.00604 20.1158C7.85215 19.8104 7.77403 19.4446 7.77166 19.0185V15.5455H9.28445V18.7486C9.28681 19.0705 9.37322 19.325 9.54368 19.5121C9.71413 19.6991 9.94259 19.7926 10.229 19.7926C10.4113 19.7926 10.5818 19.7512 10.7404 19.6683C10.899 19.5831 11.0269 19.4576 11.1239 19.2919C11.2234 19.1262 11.2719 18.9214 11.2695 18.6776ZM16.8936 15.5455V16.6818H13.6088V15.5455H16.8936ZM14.3546 14.2386H15.8674V19.3239C15.8674 19.4635 15.8887 19.5724 15.9313 19.6506C15.9739 19.7263 16.0331 19.7796 16.1088 19.8104C16.187 19.8411 16.2769 19.8565 16.3787 19.8565C16.4498 19.8565 16.5208 19.8506 16.5918 19.8388C16.6628 19.8246 16.7173 19.8139 16.7551 19.8068L16.9931 20.9325C16.9173 20.9562 16.8108 20.9834 16.6735 21.0142C16.5362 21.0473 16.3693 21.0675 16.1728 21.0746C15.8082 21.0888 15.4886 21.0402 15.214 20.929C14.9417 20.8177 14.7298 20.6449 14.5783 20.4105C14.4268 20.1761 14.3522 19.8802 14.3546 19.5227V14.2386ZM19.5091 17.8466V21H17.9963V13.7273H19.4664V16.5078H19.5304C19.6535 16.1858 19.8523 15.9337 20.127 15.7514C20.4016 15.5668 20.746 15.4744 21.1603 15.4744C21.5391 15.4744 21.8694 15.5573 22.1511 15.723C22.4352 15.8864 22.6554 16.1219 22.8116 16.4297C22.9702 16.7351 23.0484 17.1009 23.046 17.527V21H21.5332V17.7969C21.5356 17.4607 21.4503 17.1991 21.2775 17.0121C21.1071 16.825 20.868 16.7315 20.5602 16.7315C20.3542 16.7315 20.1719 16.7753 20.0133 16.8629C19.8571 16.9505 19.734 17.0784 19.644 17.2464C19.5564 17.4122 19.5114 17.6122 19.5091 17.8466ZM26.7223 21.1065C26.1612 21.1065 25.6783 20.9929 25.2734 20.7656C24.871 20.536 24.5608 20.2116 24.343 19.7926C24.1252 19.3712 24.0163 18.8729 24.0163 18.2976C24.0163 17.7365 24.1252 17.2441 24.343 16.8203C24.5608 16.3965 24.8674 16.0663 25.2628 15.8295C25.6605 15.5928 26.1269 15.4744 26.6619 15.4744C27.0218 15.4744 27.3568 15.5324 27.6669 15.6484C27.9794 15.7621 28.2517 15.9337 28.4837 16.1634C28.718 16.393 28.9003 16.6818 29.0305 17.0298C29.1607 17.3755 29.2259 17.7803 29.2259 18.2443V18.6598H24.62V17.7223H27.8018C27.8018 17.5045 27.7545 17.3116 27.6598 17.1435C27.5651 16.9754 27.4337 16.844 27.2656 16.7493C27.0999 16.6522 26.907 16.6037 26.6868 16.6037C26.4571 16.6037 26.2536 16.657 26.076 16.7635C25.9008 16.8677 25.7635 17.0085 25.6641 17.1861C25.5646 17.3613 25.5137 17.5566 25.5114 17.772V18.6634C25.5114 18.9332 25.5611 19.1664 25.6605 19.3629C25.7623 19.5594 25.9055 19.7109 26.0902 19.8175C26.2749 19.924 26.4938 19.9773 26.7472 19.9773C26.9152 19.9773 27.0691 19.9536 27.2088 19.9062C27.3485 19.8589 27.468 19.7879 27.5675 19.6932C27.6669 19.5985 27.7427 19.4825 27.7947 19.3452L29.1939 19.4375C29.1229 19.7737 28.9773 20.0672 28.7571 20.3182C28.5393 20.5668 28.2576 20.7609 27.9119 20.9006C27.5687 21.0379 27.1721 21.1065 26.7223 21.1065ZM30.2131 21V15.5455H31.6797V16.4972H31.7365C31.8359 16.1586 32.0028 15.9029 32.2372 15.7301C32.4716 15.5549 32.7415 15.4673 33.0469 15.4673C33.1226 15.4673 33.2043 15.4721 33.2919 15.4815C33.3795 15.491 33.4564 15.504 33.5227 15.5206V16.8629C33.4517 16.8416 33.3535 16.8227 33.228 16.8061C33.1025 16.7895 32.9877 16.7812 32.8835 16.7812C32.661 16.7812 32.4621 16.8298 32.2869 16.9268C32.1141 17.0215 31.9768 17.1541 31.875 17.3246C31.7756 17.495 31.7259 17.6915 31.7259 17.9141V21H30.2131Z" fill="black"/>
</svg>
