<svg width="32" height="32" viewBox="0 0 32 32" fill="none" xmlns="http://www.w3.org/2000/svg">
<path d="M0 6C0 2.68629 2.68629 0 6 0H26C29.3137 0 32 2.68629 32 6V26C32 29.3137 29.3137 32 26 32H6C2.68629 32 0 29.3137 0 26V6Z" fill="url(#paint0_linear_22_2)"/>
<path d="M15.9999 22.72C21.8321 22.72 26.5599 21.4305 26.5599 19.84C26.5599 18.2494 21.8321 16.96 15.9999 16.96C10.1678 16.96 5.43994 18.2494 5.43994 19.84C5.43994 21.4305 10.1678 22.72 15.9999 22.72Z" fill="white"/>
<path d="M15.9999 22.72C21.8321 22.72 26.5599 21.4305 26.5599 19.84C26.5599 18.2494 21.8321 16.96 15.9999 16.96C10.1678 16.96 5.43994 18.2494 5.43994 19.84C5.43994 21.4305 10.1678 22.72 15.9999 22.72Z" fill="url(#paint1_linear_22_2)"/>
<path d="M16.0001 21.1199C21.4787 21.1199 25.9201 20.117 25.9201 18.8799C25.9201 17.6428 21.4787 16.6399 16.0001 16.6399C10.5214 16.6399 6.08008 17.6428 6.08008 18.8799C6.08008 20.117 10.5214 21.1199 16.0001 21.1199Z" fill="#F8F8F8"/>
<path d="M6.08008 18.8801C6.08008 18.8801 8.00008 17.6001 16.0001 17.6001C24.0001 17.6001 25.9201 18.8801 25.9201 18.8801" stroke="#E8E8E8" stroke-width="1.5" stroke-linecap="round"/>
<path d="M15.6799 20.4801C20.0982 20.4801 23.6799 20.0503 23.6799 19.5201C23.6799 18.9899 20.0982 18.5601 15.6799 18.5601C11.2617 18.5601 7.67993 18.9899 7.67993 19.5201C7.67993 20.0503 11.2617 20.4801 15.6799 20.4801Z" fill="#C0C0C0"/>
<path d="M15.6799 20.4801C20.0982 20.4801 23.6799 20.0503 23.6799 19.5201C23.6799 18.9899 20.0982 18.5601 15.6799 18.5601C11.2617 18.5601 7.67993 18.9899 7.67993 19.5201C7.67993 20.0503 11.2617 20.4801 15.6799 20.4801Z" fill="url(#paint2_linear_22_2)"/>
<path opacity="0.7" d="M15.6801 19.8401C19.7449 19.8401 23.0401 19.5535 23.0401 19.2001C23.0401 18.8466 19.7449 18.5601 15.6801 18.5601C11.6153 18.5601 8.32007 18.8466 8.32007 19.2001C8.32007 19.5535 11.6153 19.8401 15.6801 19.8401Z" fill="#E0E0E0"/>
<path d="M7.67993 19.2C7.67993 19.2 8.63993 11.2 15.6799 11.2C22.7199 11.2 23.6799 19.2 23.6799 19.2H7.67993Z" fill="#E0E0E0"/>
<path opacity="0.6" d="M9.28003 17.6C9.28003 17.6 9.92003 12.8 15.68 12.8C21.44 12.8 22.08 17.6 22.08 17.6" stroke="#F5F5F5" stroke-width="2" stroke-linecap="round"/>
<path opacity="0.4" d="M10.8799 15.9999C10.8799 15.9999 11.8399 13.4399 15.6799 13.4399C19.5199 13.4399 20.4799 15.9999 20.4799 15.9999" stroke="white" stroke-width="1.5" stroke-linecap="round"/>
<path opacity="0.5" d="M14.0799 15.04C14.4334 15.04 14.7199 14.7535 14.7199 14.4C14.7199 14.0465 14.4334 13.76 14.0799 13.76C13.7265 13.76 13.4399 14.0465 13.4399 14.4C13.4399 14.7535 13.7265 15.04 14.0799 15.04Z" fill="white"/>
<path opacity="0.4" d="M17.28 13.92C17.5451 13.92 17.76 13.7051 17.76 13.44C17.76 13.1749 17.5451 12.96 17.28 12.96C17.015 12.96 16.8 13.1749 16.8 13.44C16.8 13.7051 17.015 13.92 17.28 13.92Z" fill="white"/>
<path opacity="0.3" d="M15.6799 16.8C16.1217 16.8 16.4799 16.4418 16.4799 16C16.4799 15.5581 16.1217 15.2 15.6799 15.2C15.2381 15.2 14.8799 15.5581 14.8799 16C14.8799 16.4418 15.2381 16.8 15.6799 16.8Z" fill="white"/>
<path opacity="0.4" d="M18.8799 15.8399C19.145 15.8399 19.3599 15.625 19.3599 15.3599C19.3599 15.0948 19.145 14.8799 18.8799 14.8799C18.6148 14.8799 18.3999 15.0948 18.3999 15.3599C18.3999 15.625 18.6148 15.8399 18.8799 15.8399Z" fill="white"/>
<path d="M15.04 10.5601V11.5201H16.32V10.5601C16.32 9.92008 15.04 9.92008 15.04 10.5601Z" fill="#D0D0D0"/>
<path d="M15.04 10.5601V11.5201H16.32V10.5601C16.32 9.92008 15.04 9.92008 15.04 10.5601Z" fill="url(#paint3_linear_22_2)"/>
<path d="M15.68 11.0401C16.0335 11.0401 16.32 10.8252 16.32 10.5601C16.32 10.295 16.0335 10.0801 15.68 10.0801C15.3266 10.0801 15.04 10.295 15.04 10.5601C15.04 10.8252 15.3266 11.0401 15.68 11.0401Z" fill="#E8E8E8"/>
<path d="M15.6801 10.88C16.5637 10.88 17.2801 10.4502 17.2801 9.91996C17.2801 9.38977 16.5637 8.95996 15.6801 8.95996C14.7964 8.95996 14.0801 9.38977 14.0801 9.91996C14.0801 10.4502 14.7964 10.88 15.6801 10.88Z" fill="url(#paint4_radial_22_2)"/>
<defs>
<linearGradient id="paint0_linear_22_2" x1="0" y1="0" x2="32" y2="32" gradientUnits="userSpaceOnUse">
<stop stop-color="#615FFF"/>
<stop offset="1" stop-color="#4F39F6"/>
</linearGradient>
<linearGradient id="paint1_linear_22_2" x1="1272.64" y1="397.12" x2="1272.64" y2="500.8" gradientUnits="userSpaceOnUse">
<stop stop-color="white"/>
<stop offset="1" stop-color="#E0E0E0"/>
</linearGradient>
<linearGradient id="paint2_linear_22_2" x1="967.68" y1="128" x2="967.68" y2="139.52" gradientUnits="userSpaceOnUse">
<stop stop-color="#D0D0D0"/>
<stop offset="0.5" stop-color="#B0B0B0"/>
<stop offset="1" stop-color="#D0D0D0"/>
</linearGradient>
<linearGradient id="paint3_linear_22_2" x1="91.84" y1="53.2801" x2="91.84" y2="60.4801" gradientUnits="userSpaceOnUse">
<stop stop-color="#E8E8E8"/>
<stop offset="1" stop-color="#C0C0C0"/>
</linearGradient>
<radialGradient id="paint4_radial_22_2" cx="0" cy="0" r="1" gradientUnits="userSpaceOnUse" gradientTransform="translate(206.08 76.16) scale(1.6 0.96)">
<stop stop-color="#E0E0E0"/>
<stop offset="1" stop-color="#A0A0A0"/>
</radialGradient>
</defs>
</svg>
