<svg width="35" height="35" viewBox="0 0 35 35" fill="none" xmlns="http://www.w3.org/2000/svg">
<rect width="35" height="35" fill="#AFAFAF"/>
<rect width="35" height="35" rx="4" fill="#686B6F"/>
<g filter="url(#filter0_d_0_1)">
<path d="M22.4647 10.325C22.855 9.08925 24.3108 8.57552 25.1352 9.57543C25.6577 10.2092 26.1178 10.9439 26.5002 11.7614C27.2974 13.4658 27.7224 15.4568 27.7235 17.4921C27.7246 19.5274 27.3017 21.5192 26.5064 23.2253C26.1248 24.0439 25.6653 24.7797 25.1433 25.4147C24.3203 26.4158 22.8638 25.9042 22.472 24.669C22.1962 23.7991 22.5795 22.8677 23.1537 22.1584C23.4526 21.7893 23.7161 21.364 23.936 20.8923C24.4072 19.8814 24.6577 18.7012 24.6571 17.4953C24.6564 16.2894 24.4046 15.1097 23.9323 14.0998C23.7123 13.6295 23.4489 13.2054 23.1503 12.8373C22.5748 12.128 22.1895 11.1961 22.4647 10.325Z" fill="#E4EAEB"/>
<path d="M12.5554 24.6067C12.1542 25.8771 10.6573 26.4037 9.81793 25.369C9.31411 24.748 8.8696 24.0323 8.49835 23.2386C7.70116 21.5342 7.27617 19.5432 7.27507 17.5079C7.27397 15.4726 7.69681 13.4808 8.49216 11.7747C8.86266 10.9799 9.30656 10.2631 9.80991 9.64086C10.6478 8.60506 12.1454 9.1294 12.5482 10.3993C12.8318 11.2936 12.4362 12.2518 11.856 12.9891C11.5818 13.3375 11.3391 13.7349 11.1348 14.1732C10.6726 15.1646 10.4269 16.322 10.4276 17.5046C10.4282 18.6872 10.6751 19.8441 11.1384 20.8345C11.3427 21.2715 11.5853 21.6677 11.8593 22.0151C12.4408 22.7525 12.8383 23.7111 12.5554 24.6067Z" fill="#E4EAEB"/>
<ellipse cx="10.1624" cy="1.42087" rx="10.1624" ry="1.42087" transform="matrix(0.941528 0.336934 -0.655779 0.754952 8.86353 13.0167)" fill="#E4EAEB"/>
</g>
<defs>
<filter id="filter0_d_0_1" x="1.27515" y="3.047" width="32.4482" height="28.8977" filterUnits="userSpaceOnUse" color-interpolation-filters="sRGB">
<feFlood flood-opacity="0" result="BackgroundImageFix"/>
<feColorMatrix in="SourceAlpha" type="matrix" values="0 0 0 0 0 0 0 0 0 0 0 0 0 0 0 0 0 0 127 0" result="hardAlpha"/>
<feOffset/>
<feGaussianBlur stdDeviation="3"/>
<feComposite in2="hardAlpha" operator="out"/>
<feColorMatrix type="matrix" values="0 0 0 0 1 0 0 0 0 1 0 0 0 0 1 0 0 0 0.35 0"/>
<feBlend mode="normal" in2="BackgroundImageFix" result="effect1_dropShadow_0_1"/>
<feBlend mode="normal" in="SourceGraphic" in2="effect1_dropShadow_0_1" result="shape"/>
</filter>
</defs>
</svg>
