<svg width="35" height="35" viewBox="0 0 35 35" fill="none" xmlns="http://www.w3.org/2000/svg">
<rect width="35" height="35" rx="4" fill="#26A4FF"/>
<path d="M20.6225 13.5653C20.5543 12.8778 20.2617 12.3437 19.7447 11.9631C19.2276 11.5824 18.5259 11.392 17.6396 11.392C17.0373 11.392 16.5288 11.4773 16.114 11.6477C15.6992 11.8125 15.381 12.0426 15.1594 12.3381C14.9435 12.6335 14.8356 12.9688 14.8356 13.3438C14.8242 13.6562 14.8896 13.929 15.0316 14.1619C15.1793 14.3949 15.381 14.5966 15.6367 14.767C15.8924 14.9318 16.1879 15.0767 16.5231 15.2017C16.8583 15.321 17.2163 15.4233 17.5969 15.5085L19.1651 15.8835C19.9265 16.054 20.6254 16.2812 21.2617 16.5653C21.8981 16.8494 22.4492 17.1989 22.9151 17.6136C23.381 18.0284 23.7418 18.517 23.9975 19.0795C24.2589 19.642 24.3924 20.2869 24.3981 21.0142C24.3924 22.0824 24.1197 23.0085 23.5799 23.7926C23.0458 24.571 22.2731 25.1761 21.2617 25.608C20.256 26.0341 19.043 26.2472 17.6225 26.2472C16.2134 26.2472 14.9862 26.0312 13.9407 25.5994C12.9009 25.1676 12.0884 24.5284 11.5032 23.6818C10.9237 22.8295 10.6197 21.7756 10.5913 20.5199H14.1623C14.2021 21.1051 14.3697 21.5937 14.6651 21.9858C14.9663 22.3722 15.3668 22.6648 15.8668 22.8636C16.3725 23.0568 16.9435 23.1534 17.5799 23.1534C18.2049 23.1534 18.7475 23.0625 19.2077 22.8807C19.6737 22.6989 20.0344 22.446 20.2901 22.1222C20.5458 21.7983 20.6737 21.4261 20.6737 21.0057C20.6737 20.6136 20.5572 20.2841 20.3242 20.017C20.0969 19.75 19.7617 19.5227 19.3185 19.3352C18.881 19.1477 18.3441 18.9773 17.7077 18.8239L15.8072 18.3466C14.3356 17.9886 13.1737 17.429 12.3214 16.6676C11.4691 15.9062 11.0458 14.8807 11.0515 13.5909C11.0458 12.5341 11.3271 11.6108 11.8952 10.821C12.4691 10.0312 13.256 9.41477 14.256 8.97159C15.256 8.52841 16.3924 8.30682 17.6651 8.30682C18.9606 8.30682 20.0913 8.52841 21.0572 8.97159C22.0288 9.41477 22.7844 10.0312 23.3242 10.821C23.864 11.6108 24.1424 12.5256 24.1594 13.5653H20.6225Z" fill="white"/>
</svg>
