<svg width="35" height="35" viewBox="0 0 35 35" fill="none" xmlns="http://www.w3.org/2000/svg">
<rect width="35" height="35" fill="#AFAFAF"/>
<rect width="35" height="35" rx="4" fill="#879C7F"/>
<rect width="1.19359" height="3.82246" rx="0.596797" transform="matrix(0.592418 -0.805631 0.592418 0.805631 6 9.32147)" fill="#BBDCF4"/>
<rect width="1.19359" height="5.47435" rx="0.596797" transform="matrix(0.592418 0.805631 -0.592418 0.805631 10.8284 7)" fill="#BBDCF4"/>
<rect width="1.19359" height="3.82246" rx="0.596797" transform="matrix(0.592418 -0.805631 0.592418 0.805631 6 16.121)" fill="#BBDCF4"/>
<rect width="1.19359" height="5.47435" rx="0.596797" transform="matrix(0.592418 0.805631 -0.592418 0.805631 10.8284 13.7995)" fill="#BBDCF4"/>
<rect width="1.19359" height="3.82246" rx="0.596797" transform="matrix(0.592418 -0.805631 0.592418 0.805631 6 22.9205)" fill="#BBDCF4"/>
<rect width="1.19359" height="5.47435" rx="0.596797" transform="matrix(0.592418 0.805631 -0.592418 0.805631 10.8284 20.599)" fill="#BBDCF4"/>
<rect x="12.0002" y="9.71979" width="15" height="1.3599" rx="0.679951" fill="#FFFDFD"/>
<rect x="12.0002" y="16.5193" width="15" height="1.3599" rx="0.679951" fill="#FFFDFD"/>
<rect x="12.0002" y="23.3188" width="15" height="1.3599" rx="0.679951" fill="#FFFDFD"/>
</svg>
